PathFileType	4	(x/y/z)	A01_PREF_T0015.trc
DataRate	CameraRate	NumFrames	NumMarkers	Units	OrigDataRate	OrigDataStartFrame	OrigNumFrames
240	240	8	48	mm	240	1	288
Frame#	Time	TOP_HEAD			R_AC			L_AC			R_ASIS			L_ASIS			R_PSIS			L_PSIS			SACRAL			L_IC			R_IC			L_GT			R_GT			R_LAT_KNEE			R_MED_KNEE			L_MED_KNEE			L_LAT_KNEE			R_TOE			L_TOE			R_1ST_MET			L_1ST_MET			L_5TH_MET			R_5TH_MET			R_LAT_ANK			R_MED_ANK			L_MED_ANK			L_LAT_ANK			L_HEEL_SUP			R_HEEL_SUP			L_HEEL_LAT			R_HEEL_LAT			L_HEEL_MED			R_HEEL_MED			R_SHANK_PROX_POST			R_SHANK_PROX_ANT			R_SHANK_DIST_ANT			R_SHANK_DIST_POST			R_THIGH_PROX_POST			R_THIGH_PROX_ANT			R_THIGH_DIST_ANT			R_THIGH_DIST_POST			L_SHANK_PROX_ANT			L_SHANK_PROX_POST			L_SHANK_DIST_POST			L_SHANK_DIST_ANT			L_THIGH_PROX_ANT			L_THIGH_PROX_POST			L_THIGH_DIST_POST			L_THIGH_DIST_ANT			
		X1	Y1	Z1	X2	Y2	Z2	X3	Y3	Z3	X4	Y4	Z4	X5	Y5	Z5	X6	Y6	Z6	X7	Y7	Z7	X8	Y8	Z8	X9	Y9	Z9	X10	Y10	Z10	X11	Y11	Z11	X12	Y12	Z12	X13	Y13	Z13	X14	Y14	Z14	X15	Y15	Z15	X16	Y16	Z16	X17	Y17	Z17	X18	Y18	Z18	X19	Y19	Z19	X20	Y20	Z20	X21	Y21	Z21	X22	Y22	Z22	X23	Y23	Z23	X24	Y24	Z24	X25	Y25	Z25	X26	Y26	Z26	X27	Y27	Z27	X28	Y28	Z28	X29	Y29	Z29	X30	Y30	Z30	X31	Y31	Z31	X32	Y32	Z32	X33	Y33	Z33	X34	Y34	Z34	X35	Y35	Z35	X36	Y36	Z36	X37	Y37	Z37	X38	Y38	Z38	X39	Y39	Z39	X40	Y40	Z40	X41	Y41	Z41	X42	Y42	Z42	X43	Y43	Z43	X44	Y44	Z44	X45	Y45	Z45	X46	Y46	Z46	X47	Y47	Z47	X48	Y48	Z48	

1	0	-602.7	1787.4	329.58	-782.07	1539.1	572.16	-846.38	1565.2	118.61	-821.1	1091.7	539.99	-790.44	1031	189.92	-1026	1102.8	392.78	-1006.4	1088.6	265.07	-1035	1067.1	327.16	-833.8	1161.9	144.01	-848.52	1192.3	546.45	-839.67	947.62	143.87	-906.21	991.12	573.13	-1026.6	600.22	508.03	NaN	NaN	NaN	-709.41	564.73	379.73	-731.77	566.13	219.47	-979.45	64.825	407.74	-344.62	196.89	272.62	-1059.4	52.663	362.24	-405.45	135.95	325.95	-424.94	117.38	195.93	-1087.1	44.784	496.21	-1177	150.91	474.91	-1163	158.68	372.95	-556.78	152.73	305.83	-578.64	136.26	237.87	-632.72	49.2	274.1	-1284	148.51	415.31	-609.11	28.528	241.54	-1282.8	121.9	449.57	-600.86	30.256	306.65	-1275.8	118.27	388.16	-1166.3	455.35	499.83	-1102.7	429.33	524.27	-1116.4	355.84	506.51	-1168.2	371.82	490.87	-981.1	871.82	547.48	-909.62	871.8	559.92	-929.65	782.9	550.1	-997.09	783.96	536.51	-650.53	512.15	234.46	-699.12	488.47	221.4	-677.81	429	227.23	-634.39	458.15	240.37	-739.96	825.63	198.76	-802.34	810.65	165.69	-773.6	742.49	185.06	-718.49	756.29	214.82
2	0.0041812	-597.96	1786.5	328.87	-777.19	1538.2	571.47	-841.39	1563.7	117.87	-816.32	1090.7	539.85	-785.4	1030	189.82	-1021	1101.9	392.31	-1001.4	1087.6	264.62	-1030.1	1066.2	326.69	-828.66	1160.6	143.71	-843.89	1191.4	546.33	-834.43	946.55	143.84	-901.74	990.38	573.01	-1023.3	599.9	508.09	NaN	NaN	NaN	-704.1	564.1	379.97	-725.95	565.55	219.92	-979.44	64.804	407.73	-339.79	194.37	273.44	-1059.4	52.618	362.26	-401.17	133.99	326.72	-420.94	115.85	196.67	-1086.9	44.787	496.24	-1176.4	151.59	474.98	-1162.2	159.21	373.06	-552.57	151.65	306.47	-574.47	135.17	238.49	-629.22	49.72	274.82	-1283.2	149.54	415.43	-605.82	28.871	242.26	-1282.1	122.88	449.62	-597.54	30.357	307.37	-1275.2	119.37	388.24	-1163.7	455.85	499.87	-1100.3	429.46	524.36	-1114.5	356.06	506.61	-1166.1	372.27	490.94	-976.98	871.39	547.28	-905.53	871.18	559.92	-925.8	782.28	550.13	-993.21	783.57	536.38	-645.29	511.26	234.74	-693.98	487.69	221.67	-672.81	428.18	227.58	-629.31	457.23	240.7	-734.75	824.81	199.06	-797.05	809.82	165.94	-768.32	741.64	185.31	-713.2	755.5	215.1
3	0.0083624	-593.01	1785.5	328.13	-772.1	1537.2	570.73	-836.18	1562.3	117.09	-811.32	1089.7	539.7	-780.13	1028.9	189.72	-1015.9	1100.9	391.82	-996.22	1086.6	264.16	-1024.9	1065.2	326.2	-823.29	1159.2	143.38	-839.04	1190.5	546.2	-828.96	945.45	143.82	-897.06	989.62	572.89	-1019.7	599.57	508.15	NaN	NaN	NaN	-698.57	563.49	380.23	-719.9	565	220.38	-979.44	64.781	407.72	-334.88	191.66	274.28	-1059.3	52.569	362.27	-396.86	131.92	327.49	-416.9	114.19	197.41	-1086.7	44.789	496.28	-1175.6	152.29	475.07	-1161.3	159.78	373.19	-548.31	150.53	307.11	-570.27	134.05	239.1	-625.73	50.268	275.52	-1282.4	150.63	415.56	-602.53	29.224	242.96	-1281.3	123.92	449.67	-594.24	30.475	308.08	-1274.6	120.53	388.34	-1161	456.37	499.91	-1097.8	429.59	524.45	-1112.4	356.29	506.72	-1164	372.75	491.01	-972.67	870.93	547.07	-901.25	870.52	559.93	-921.77	781.65	550.17	-989.16	783.15	536.24	-639.84	510.37	235.04	-688.64	486.93	221.96	-667.64	427.37	227.94	-624.04	456.3	241.04	-729.33	823.96	199.35	-791.56	808.96	166.19	-762.84	740.76	185.57	-707.69	754.68	215.37
4	0.012544	-587.9	1784.5	327.37	-766.83	1536.2	569.97	-830.79	1560.7	116.26	-806.14	1088.7	539.55	-774.68	1027.8	189.61	-1010.5	1100	391.33	-990.86	1085.5	263.69	-1019.5	1064.2	325.71	-817.74	1157.8	143.05	-834	1189.5	546.07	-823.31	944.31	143.8	-892.21	988.82	572.77	-1016.1	599.22	508.21	NaN	NaN	NaN	-692.85	562.91	380.51	-713.65	564.5	220.84	-979.43	64.758	407.71	-329.96	188.78	275.12	-1059.2	52.515	362.28	-392.59	129.72	328.25	-412.87	112.41	198.15	-1086.5	44.792	496.33	-1174.8	153.02	475.16	-1160.5	160.37	373.32	-544.07	149.38	307.74	-566.08	132.92	239.7	-622.29	50.84	276.16	-1281.5	151.77	415.7	-599.32	29.584	243.63	-1280.6	125.03	449.74	-591.01	30.612	308.76	-1274	121.74	388.44	-1158.2	456.91	499.95	-1095.2	429.72	524.55	-1110.3	356.52	506.83	-1161.7	373.25	491.09	-968.19	870.45	546.85	-896.81	869.85	559.93	-917.58	780.99	550.22	-984.93	782.71	536.1	-634.22	509.48	235.35	-683.13	486.21	222.24	-662.33	426.58	228.31	-618.63	455.38	241.39	-723.74	823.09	199.63	-785.91	808.08	166.45	-757.17	739.86	185.82	-702	753.85	215.62
5	0.016725	-582.64	1783.6	326.6	-761.41	1535.3	569.16	-825.26	1559.2	115.41	-800.81	1087.6	539.4	-769.06	1026.6	189.5	-1005.1	1099	390.83	-985.35	1084.4	263.21	-1014	1063.2	325.22	-812.01	1156.3	142.7	-828.79	1188.6	545.93	-817.5	943.15	143.78	-887.2	988.01	572.64	-1012.2	598.85	508.29	NaN	NaN	NaN	-686.97	562.36	380.79	-707.24	564.05	221.31	-979.43	64.733	407.7	-325.08	185.72	275.95	-1059.1	52.457	362.29	-388.4	127.41	328.99	-408.91	110.51	198.88	-1086.2	44.794	496.38	-1174	153.77	475.27	-1159.5	160.99	373.47	-539.9	148.21	308.34	-561.96	131.78	240.27	-618.96	51.434	276.76	-1280.5	152.97	415.85	-596.22	29.95	244.25	-1279.8	126.19	449.81	-587.91	30.768	309.39	-1273.3	123.02	388.57	-1155.2	457.47	500	-1092.4	429.86	524.66	-1108	356.77	506.95	-1159.3	373.79	491.18	-963.56	869.95	546.64	-892.22	869.15	559.93	-913.24	780.32	550.26	-980.56	782.25	535.97	-628.45	508.62	235.67	-677.49	485.53	222.54	-656.92	425.83	228.67	-613.1	454.46	241.75	-718	822.21	199.89	-780.12	807.19	166.71	-751.37	738.96	186.06	-696.17	753.01	215.84
6	0.020906	-577.28	1782.6	325.81	-755.86	1534.3	568.32	-819.61	1557.6	114.51	-795.34	1086.5	539.25	-763.3	1025.5	189.38	-999.44	1098	390.33	-979.71	1083.3	262.73	-1008.4	1062.2	324.73	-806.15	1154.8	142.34	-823.42	1187.6	545.77	-811.58	941.98	143.76	-882.07	987.17	572.51	-1008.3	598.46	508.37	NaN	NaN	NaN	-680.97	561.86	381.08	-700.72	563.67	221.77	-979.43	64.706	407.68	-320.29	182.51	276.75	-1059	52.393	362.3	-384.34	125	329.7	-405.07	108.5	199.58	-1086	44.797	496.43	-1173.1	154.54	475.39	-1158.5	161.64	373.63	-535.84	147.03	308.92	-557.95	130.64	240.81	-615.78	52.044	277.28	-1279.5	154.23	416.02	-593.27	30.317	244.82	-1278.9	127.41	449.88	-584.99	30.943	309.98	-1272.5	124.36	388.7	-1152.2	458.04	500.06	-1089.6	429.99	524.77	-1105.7	357.03	507.08	-1156.9	374.35	491.27	-958.8	869.43	546.42	-887.5	868.44	559.93	-908.77	779.64	550.31	-976.05	781.77	535.84	-622.57	507.79	236	-671.74	484.91	222.83	-651.45	425.13	229.03	-607.49	453.56	242.12	-712.15	821.33	200.12	-774.25	806.3	166.96	-745.47	738.06	186.29	-690.22	752.17	216.03
7	0.025087	-571.82	1781.6	325.01	-750.21	1533.3	567.45	-813.86	1556	113.59	-789.77	1085.4	539.11	-757.44	1024.4	189.26	-993.72	1097	389.84	-973.98	1082.2	262.26	-1002.7	1061.1	324.24	-800.19	1153.2	141.96	-817.93	1186.6	545.61	-805.55	940.8	143.73	-876.83	986.32	572.38	-1004.2	598.06	508.45	NaN	NaN	NaN	-674.87	561.41	381.38	-694.1	563.37	222.22	-979.43	64.679	407.67	-315.64	179.16	277.52	-1058.9	52.324	362.31	-380.47	122.51	330.36	-401.38	106.39	200.24	-1085.7	44.799	496.49	-1172.2	155.33	475.52	-1157.5	162.32	373.8	-531.93	145.85	309.45	-554.1	129.53	241.31	-612.78	52.668	277.73	-1278.4	155.54	416.2	-590.51	30.685	245.33	-1278.1	128.69	449.97	-582.26	31.137	310.5	-1271.7	125.75	388.85	-1149	458.63	500.13	-1086.6	430.13	524.89	-1103.3	357.29	507.21	-1154.3	374.94	491.37	-953.93	868.9	546.21	-882.67	867.71	559.93	-904.18	778.95	550.37	-971.43	781.28	535.71	-616.62	507	236.34	-665.93	484.37	223.13	-645.95	424.5	229.38	-601.83	452.7	242.48	-706.21	820.47	200.32	-768.3	805.41	167.21	-739.48	737.17	186.5	-684.18	751.34	216.18
8	0.029268	-566.29	1780.7	324.2	-744.49	1532.3	566.56	-808.04	1554.4	112.64	-784.1	1084.3	538.96	-751.49	1023.3	189.13	-987.93	1096	389.37	-968.17	1081.1	261.79	-996.85	1060.1	323.77	-794.13	1151.6	141.58	-812.33	1185.6	545.43	-799.46	939.63	143.71	-871.5	985.46	572.25	-999.96	597.63	508.54	NaN	NaN	NaN	-668.69	561.03	381.69	-687.43	563.15	222.67	-979.43	64.65	407.66	-311.19	175.7	278.25	-1058.8	52.25	362.32	-376.82	119.95	330.97	-397.88	104.19	200.85	-1085.5	44.803	496.55	-1171.2	156.13	475.67	-1156.4	163.03	373.98	-528.2	144.67	309.94	-550.44	128.43	241.76	-609.99	53.299	278.1	-1277.2	156.91	416.4	-587.96	31.05	245.77	-1277.2	130.04	450.06	-579.77	31.348	310.95	-1270.8	127.21	389.01	-1145.7	459.23	500.2	-1083.6	430.27	525.02	-1100.7	357.56	507.35	-1151.6	375.55	491.47	-948.95	868.35	545.99	-877.74	866.98	559.93	-899.48	778.25	550.42	-966.69	780.77	535.59	-610.6	506.25	236.69	-660.07	483.9	223.42	-640.44	423.93	229.73	-596.15	451.87	242.85	-700.21	819.63	200.48	-762.32	804.55	167.45	-733.44	736.3	186.69	-678.08	750.53	216.29
